<svg xmlns="http://www.w3.org/2000/svg" width="96" height="96" fill="none" viewBox="0 0 96 96"><rect width="96" height="96" fill="#171b2e" rx="24"/><path fill="#8ea7ff" d="M64.8 62.2c-13.2 0-24-10.8-24-24 0-7 3-13.3 7.8-17.7C31.5 21.1 18 35 18 52.1c0 17.5 14.2 31.7 31.7 31.7 12.7 0 23.7-7.4 28.7-18.2-4.1-2.2-8.7-3.4-13.6-3.4"/><path fill="#95f0c0" d="m67 18 2.4 7.1h7.5l-6.1 4.4 2.3 7.1-6.1-4.4-6.1 4.4 2.3-7.1-6.1-4.4h7.5Z"/><path fill="#f6f7fb" d="m36 22 1.5 4.2H42l-3.6 2.6 1.4 4.2-3.8-2.6-3.8 2.6 1.4-4.2-3.6-2.6h4.5Z"/></svg>